<svg width="169" height="191" viewBox="0 0 169 191" fill="none" xmlns="http://www.w3.org/2000/svg">
<path d="M67.6422 97.7331V92.7978C67.6422 88.3795 71.2239 84.7978 75.6422 84.7978H91.0988C95.5171 84.7978 99.0988 88.3795 99.0988 92.7978V99.2428C99.0988 101.103 99.7467 102.904 100.931 104.338L104.511 108.671C106.854 111.508 106.961 115.576 104.77 118.531L88.5568 140.397C85.3162 144.768 78.7524 144.698 75.605 140.26L59.3613 117.355C56.716 113.625 57.7301 108.44 61.5857 105.982L63.9434 104.478C66.2474 103.009 67.6422 100.466 67.6422 97.7331Z" fill="#F6F6F8" stroke="#2C4D87" stroke-opacity="0.1"/>
<path d="M106.865 81.7387L112.007 57.1451C112.276 55.86 112.224 54.5285 111.857 53.268L108.289 41.0333C107.293 37.6198 104.164 35.273 100.609 35.273H61.3296C56.9113 35.273 53.3296 38.8548 53.3296 43.273V60.426C53.3296 61.4658 53.5323 62.4957 53.9264 63.4579L61.3793 81.6559C61.7336 82.521 62.2334 83.3159 62.8668 84.0034C68.7157 90.3506 78.2249 99.8352 85.6507 99.7338C92.8159 99.636 102.445 89.3711 105.954 84.0267C106.41 83.3335 106.695 82.5503 106.865 81.7387Z" fill="#F6F6F8" stroke="#2C4D87" stroke-opacity="0.1"/>
<path d="M106.167 15.5665C110.791 18.096 115.377 22.6072 116.018 29.9487C117.001 41.2059 113.862 49.4509 112.024 52.4398C111.92 52.6087 111.861 52.8013 111.861 52.9997C111.861 54.2485 110.045 54.3972 109.842 53.1651L108.039 42.234C107.858 41.1367 106.794 40.4222 105.716 40.695C95.9139 43.1746 74.9194 49.0942 64.6912 40.2071C61.1829 37.159 53.8405 53.2679 55.5005 63.8073C55.6292 64.6243 55.0243 65.4072 54.1972 65.4072C53.579 65.4072 53.0538 64.9559 52.9411 64.3481C51.2726 55.3549 47.8517 52.0724 50.6838 31.8178C50.8553 30.5911 51.3262 29.4211 52.0381 28.4075L55.8354 23L59.8912 17.5029C60.6114 16.5267 61 15.3455 61 14.1324C61 11.918 62.2875 9.90576 64.2981 8.97782L67.2594 7.61106C67.4179 7.53789 67.5904 7.5 67.765 7.5C68.8615 7.5 69.3964 8.85156 68.6119 9.61753C65.1046 13.0419 61.905 16.6203 67.5 13C73.5318 9.09708 77.9113 4.38111 79.8707 1.85319C80.2786 1.32695 80.8973 1 81.5631 1H85.6361C86.3647 1 86.6603 1.9378 86.0635 2.35558C85.3957 2.823 85.8555 3.8694 86.6514 3.69363L97.537 1.28972C98.3709 1.10558 99.2436 1.28969 99.932 1.79498L107.53 7.37211C107.646 7.45692 107.749 7.55809 107.835 7.67244L109.79 10.2592C110.281 10.9085 109.546 11.7708 108.827 11.3892C108.01 10.9555 107.273 12.0813 107.998 12.6564L110.899 14.9592C111.871 15.7302 111.022 17.2691 109.852 16.8587L106.167 15.5665Z" fill="#2E2727"/>
<path d="M70.8359 19.0212C77.3422 17.594 92.2222 14.4124 98.8489 13M98.8489 13C104.15 13.8177 115.006 18.3522 116.018 29.9487C117.001 41.2059 113.862 49.4509 112.024 52.4398C111.92 52.6087 111.861 52.8013 111.861 52.9997V52.9997C111.861 54.2485 110.045 54.3972 109.842 53.1651L108.039 42.234C107.858 41.1367 106.794 40.4222 105.716 40.695C95.9139 43.1746 74.9194 49.0942 64.6912 40.2071C61.1829 37.159 53.8405 53.2679 55.5005 63.8073C55.6292 64.6243 55.0243 65.4072 54.1972 65.4072V65.4072C53.579 65.4072 53.0538 64.9559 52.9411 64.3481C51.2726 55.3548 47.8517 52.0724 50.6838 31.8178C50.8553 30.5911 51.3262 29.4211 52.0381 28.4075L55.8354 23L59.8912 17.5029C60.6114 16.5267 61 15.3455 61 14.1324V14.1324C61 11.918 62.2875 9.90576 64.2981 8.97782L67.2594 7.61106C67.4179 7.53789 67.5904 7.5 67.765 7.5V7.5C68.8615 7.5 69.3964 8.85156 68.6119 9.61753C65.1046 13.0419 61.905 16.6203 67.5 13C73.5318 9.09708 77.9113 4.38111 79.8707 1.85319C80.2786 1.32695 80.8973 1 81.5631 1H85.6361C86.3647 1 86.6603 1.9378 86.0635 2.35558V2.35558C85.3957 2.823 85.8555 3.8694 86.6514 3.69363L97.537 1.28972C98.3709 1.10558 99.2436 1.28969 99.932 1.79498L107.53 7.37211C107.646 7.45692 107.749 7.55809 107.835 7.67244L109.79 10.2592C110.281 10.9085 109.546 11.7708 108.827 11.3892V11.3892C108.01 10.9555 107.273 12.0813 107.998 12.6564L110.899 14.9592C111.871 15.7302 111.022 17.2691 109.852 16.8587L98.8489 13Z" stroke="#2C4D87"/>
<path d="M28.6965 120.71L50.9836 111.423C51.6164 111.16 52.3402 111.239 52.9014 111.632L84.2537 133.626C84.99 134.142 85.9806 134.104 86.6746 133.531L113.029 111.8C113.623 111.311 114.444 111.206 115.142 111.529L140.379 123.213C140.782 123.399 141.111 123.714 141.315 124.107L162.386 164.78C162.462 164.926 162.519 165.081 162.557 165.242L167.922 188.042C168.217 189.297 167.264 190.5 165.975 190.5H2.57376C1.26881 190.5 0.313401 189.271 0.635728 188.006L6.4492 165.199C6.48298 165.067 6.53025 164.938 6.59029 164.815L27.6688 121.678C27.8822 121.241 28.2476 120.897 28.6965 120.71Z" stroke="#2C4D87" stroke-opacity="0.1"/>
<path d="M53.8199 109.097L60.923 104.237C61.5775 103.789 62.4348 103.77 63.1083 104.189L80.0151 114.699C80.332 114.896 80.6978 115 81.071 115H86.0046C86.33 115 86.6504 114.921 86.9381 114.769L103.615 105.967C104.172 105.673 104.835 105.659 105.405 105.928L112.314 109.201C113.264 109.651 113.703 110.759 113.321 111.737L85.3475 183.275C84.6865 184.966 82.2967 184.972 81.6263 183.285L53.0907 111.486C52.7453 110.617 53.0482 109.625 53.8199 109.097Z" fill="#3879E9" stroke="#2C4D87" stroke-opacity="0.1"/>
<g filter="url(#filter0_d_216_85)">
<path d="M84 114C83.6227 113.245 71.6468 104.422 65.534 100.627C64.9007 100.233 64.1036 100.248 63.4714 100.643L62.4442 101.285C61.416 101.928 61.1915 103.33 61.9677 104.261L76.6577 121.889C77.3886 122.766 78.7041 122.855 79.5456 122.083L82.8269 119.075C83.5135 118.446 84.5438 118.374 85.3114 118.902L90.4934 122.464C91.3464 123.051 92.506 122.889 93.1665 122.092L104.841 108.002C105.679 106.991 105.331 105.461 104.139 104.91L101.102 103.509C100.425 103.196 99.6315 103.286 99.0399 103.74C93.6443 107.885 84.3765 114.753 84 114Z" fill="#3879E9" shape-rendering="crispEdges"/>
<path d="M84 114C83.6227 113.245 71.6468 104.422 65.534 100.627C64.9007 100.233 64.1036 100.248 63.4714 100.643L62.4442 101.285C61.416 101.928 61.1915 103.33 61.9677 104.261L76.6577 121.889C77.3886 122.766 78.7041 122.855 79.5456 122.083L82.8269 119.075C83.5135 118.446 84.5438 118.374 85.3114 118.902L90.4934 122.464C91.3464 123.051 92.506 122.889 93.1665 122.092L104.841 108.002C105.679 106.991 105.331 105.461 104.139 104.91L101.102 103.509C100.425 103.196 99.6315 103.286 99.0399 103.74C93.6443 107.885 84.3765 114.753 84 114Z" stroke="#2C4D87" stroke-opacity="0.1" shape-rendering="crispEdges"/>
</g>
<path d="M83.2867 127.967L81.2428 122.857C80.8326 121.831 81.3314 120.667 82.357 120.257L84.7572 119.297C85.234 119.106 85.766 119.106 86.2428 119.297L88.643 120.257C89.6686 120.667 90.1674 121.831 89.7572 122.857L87.671 128.072C87.5585 128.354 87.5114 128.657 87.5332 128.959L90.472 169.612C90.4905 169.868 90.4602 170.123 90.3799 170.367C89.6078 172.714 85.3165 185.5 83.5 185.5C81.7134 185.5 77.1338 173.131 76.1769 170.492C76.0581 170.164 76.0326 169.82 76.0946 169.477L83.3979 129.065C83.4646 128.696 83.4261 128.315 83.2867 127.967Z" fill="#FB5F5F" stroke="#2C4D87" stroke-opacity="0.1"/>
<path d="M119.5 114V132.573C119.5 134.207 117.228 135.095 115.815 135.917C114.814 136.5 114 138.038 114 141.5C114 146.747 121.28 170.284 121.951 172.789C121.991 172.939 122.018 173.075 122.059 173.226C122.25 173.922 122.904 176.051 124 177C125.796 178.555 130 178 130 178" stroke="black" stroke-opacity="0.19" stroke-width="2"/>
<path d="M119.5 114V131.645C119.5 133.033 121.031 134.052 122.288 134.642C123.65 135.282 125 137.041 125 141.5C125 146.808 117.548 170.84 117.028 172.868C117.005 172.96 116.994 173.046 116.976 173.139C116.853 173.798 116.202 176.619 114 177.5C111.5 178.5 109 178 109 178" stroke="black" stroke-opacity="0.19" stroke-width="2"/>
<path d="M44 115V142.5" stroke="black" stroke-opacity="0.19" stroke-width="2"/>
<ellipse cx="44" cy="143.5" rx="5" ry="5.5" fill="#D9D9D9"/>
<path d="M48.5 143.5C48.5 146.307 46.4415 148.5 44 148.5C41.5585 148.5 39.5 146.307 39.5 143.5C39.5 140.693 41.5585 138.5 44 138.5C46.4415 138.5 48.5 140.693 48.5 143.5Z" stroke="black" stroke-opacity="0.25"/>
<defs>
<filter id="filter0_d_216_85" x="57.0039" y="99.839" width="52.7976" height="31.4773" filterUnits="userSpaceOnUse" color-interpolation-filters="sRGB">
<feFlood flood-opacity="0" result="BackgroundImageFix"/>
<feColorMatrix in="SourceAlpha" type="matrix" values="0 0 0 0 0 0 0 0 0 0 0 0 0 0 0 0 0 0 127 0" result="hardAlpha"/>
<feOffset dy="4"/>
<feGaussianBlur stdDeviation="2"/>
<feComposite in2="hardAlpha" operator="out"/>
<feColorMatrix type="matrix" values="0 0 0 0 0 0 0 0 0 0 0 0 0 0 0 0 0 0 0.25 0"/>
<feBlend mode="normal" in2="BackgroundImageFix" result="effect1_dropShadow_216_85"/>
<feBlend mode="normal" in="SourceGraphic" in2="effect1_dropShadow_216_85" result="shape"/>
</filter>
</defs>
</svg>
