<svg width="174" height="192" viewBox="0 0 174 192" fill="none" xmlns="http://www.w3.org/2000/svg">
<path d="M72.6421 85.3488V80.7978C72.6421 76.3795 76.2238 72.7978 80.6421 72.7978H96.0987C100.517 72.7978 104.099 76.3795 104.099 80.7978V85.8436C104.099 88.5156 105.433 91.0111 107.654 92.4955L114.895 97.3335C119.163 100.185 119.68 106.259 115.955 109.791L92.3617 132.162C89.3284 135.038 84.5922 135.094 81.4917 132.29L57.3832 110.491C53.2864 106.786 54.0869 100.143 58.9464 97.5182L68.4443 92.3875C71.0303 90.9905 72.6421 88.288 72.6421 85.3488Z" fill="#F6F6F8" stroke="#2C4D87" stroke-opacity="0.1"/>
<path d="M26.3871 109.525L5.06956 134.894C2.25743 138.241 2.65213 143.225 5.95592 146.087L22.19 160.152C25.1626 162.727 29.6427 162.478 32.311 159.588C36.8092 154.717 44.9466 157.9 44.9466 164.53V183.5C44.9466 187.918 48.5283 191.5 52.9466 191.5H122.8C127.218 191.5 130.8 187.918 130.8 183.5V164.129C130.8 157.514 138.854 154.264 143.445 159.028C146.426 162.122 151.414 162.01 154.254 158.787L168.689 142.403C171.297 139.442 171.358 135.023 168.832 131.992L150.122 109.543C149.37 108.64 148.429 107.915 147.365 107.417L130.335 99.4552C127.667 98.2075 124.528 98.5274 122.166 100.288L99.28 117.344C98.582 117.865 97.9735 118.495 97.4787 119.211L94.8888 122.96C91.7996 127.431 85.2471 127.587 81.9488 123.268L78.694 119.006C78.2503 118.425 77.7289 117.907 77.1446 117.468L54.3438 100.319C51.9795 98.5406 48.8268 98.2123 46.1468 99.4653L29.1236 107.425C28.0695 107.917 27.1357 108.634 26.3871 109.525Z" fill="#3879E9" stroke="#2C4D87"/>
<path d="M111.865 69.7387L117.007 45.1451C117.276 43.86 117.224 42.5285 116.857 41.268L113.289 29.0333C112.293 25.6198 109.164 23.273 105.609 23.273H66.3296C61.9113 23.273 58.3296 26.8548 58.3296 31.273V48.426C58.3296 49.4658 58.5323 50.4957 58.9264 51.4579L66.3793 69.6559C66.7336 70.521 67.2334 71.3159 67.8668 72.0034C73.7157 78.3506 83.2249 87.8352 90.6507 87.7338C97.8159 87.636 107.445 77.3711 110.954 72.0267C111.41 71.3335 111.695 70.5503 111.865 69.7387Z" fill="#F6F6F8" stroke="#2C4D87" stroke-opacity="0.1"/>
<path d="M75.8359 7.02125C73.938 7.43757 71.5942 7.32007 69.1005 6.88016C64.6295 6.09144 56.6334 13.4595 55.9557 17.9487C52.6449 39.8806 56.2225 43.0851 57.941 52.3481C58.0538 52.9559 58.579 53.4072 59.1972 53.4072C60.0242 53.4072 60.628 52.6281 60.4366 51.8235C57.8963 41.1463 56.6253 23.6249 69.6911 28.2071C82.4552 32.6835 101.202 30.5735 110.703 28.642C111.793 28.4204 112.858 29.1367 113.039 30.234L114.842 41.1651C115.045 42.3972 116.861 42.2485 116.861 40.9997C116.861 40.8013 116.92 40.6087 117.024 40.4398C118.862 37.4509 122.001 29.2059 121.018 17.9487C120.091 7.32145 110.896 2.62502 105.286 1.28487C104.341 1.05935 103.365 1.10316 102.415 1.30568C95.2715 2.82963 81.9075 5.68933 75.8359 7.02125Z" fill="#2E2727" stroke="#2C4D87"/>
</svg>
