<svg width="358" height="250" viewBox="0 0 358 250" fill="none" xmlns="http://www.w3.org/2000/svg">
<rect width="358" height="240" rx="16" fill="#3879E9" fill-opacity="0.08"/>
<g filter="url(#filter0_d_320_10)">
<path d="M42 58C42 49.1634 49.1634 42 58 42H299C307.837 42 315 49.1634 315 58V240H42V58Z" fill="white"/>
</g>
<path d="M65.6321 73V65.7273H68.5014C69.053 65.7273 69.523 65.8326 69.9112 66.0433C70.2995 66.2517 70.5954 66.5417 70.799 66.9134C71.005 67.2827 71.108 67.7088 71.108 68.1918C71.108 68.6747 71.0038 69.1009 70.7955 69.4702C70.5871 69.8395 70.2853 70.1271 69.8899 70.3331C69.4969 70.5391 69.0211 70.642 68.4624 70.642H66.6335V69.4098H68.2138C68.5097 69.4098 68.7536 69.3589 68.9453 69.2571C69.1394 69.1529 69.2839 69.0097 69.3786 68.8274C69.4756 68.6428 69.5241 68.4309 69.5241 68.1918C69.5241 67.9503 69.4756 67.7396 69.3786 67.5597C69.2839 67.3774 69.1394 67.2365 68.9453 67.1371C68.7512 67.0353 68.505 66.9844 68.2067 66.9844H67.1697V73H65.6321ZM72.1067 73V65.7273H74.976C75.5253 65.7273 75.994 65.8255 76.3823 66.022C76.7729 66.2161 77.07 66.492 77.2736 66.8494C77.4796 67.2045 77.5826 67.6224 77.5826 68.103C77.5826 68.5859 77.4784 69.0014 77.2701 69.3494C77.0617 69.6951 76.7599 69.9602 76.3645 70.1449C75.9715 70.3295 75.4957 70.4219 74.937 70.4219H73.0158V69.1861H74.6884C74.9819 69.1861 75.2258 69.1458 75.4199 69.0653C75.6141 68.9848 75.7585 68.8641 75.8532 68.7031C75.9502 68.5421 75.9988 68.3421 75.9988 68.103C75.9988 67.8615 75.9502 67.6579 75.8532 67.4922C75.7585 67.3265 75.6129 67.201 75.4164 67.1158C75.2222 67.0282 74.9772 66.9844 74.6813 66.9844H73.6444V73H72.1067ZM76.0343 69.6903L77.8418 73H76.1444L74.3759 69.6903H76.0343ZM78.6692 73V65.7273H83.5698V66.995H80.2069V68.728H83.3176V69.9957H80.2069V71.7322H83.584V73H78.6692ZM88.7376 67.8189C88.7092 67.5324 88.5872 67.3099 88.3718 67.1513C88.1564 66.9927 87.864 66.9134 87.4947 66.9134C87.2437 66.9134 87.0318 66.9489 86.859 67.0199C86.6862 67.0885 86.5536 67.1844 86.4613 67.3075C86.3713 67.4306 86.3263 67.5703 86.3263 67.7266C86.3216 67.8568 86.3488 67.9704 86.408 68.0675C86.4696 68.1645 86.5536 68.2486 86.6602 68.3196C86.7667 68.3883 86.8898 68.4486 87.0295 68.5007C87.1692 68.5504 87.3183 68.593 87.4769 68.6286L88.1303 68.7848C88.4476 68.8558 88.7388 68.9505 89.0039 69.0689C89.2691 69.1873 89.4987 69.3329 89.6928 69.5057C89.887 69.6785 90.0373 69.8821 90.1438 70.1165C90.2527 70.3509 90.3084 70.6196 90.3107 70.9226C90.3084 71.3677 90.1947 71.7536 89.9698 72.0803C89.7473 72.4046 89.4253 72.6567 89.0039 72.8366C88.5849 73.0142 88.0794 73.103 87.4876 73.103C86.9004 73.103 86.3891 73.013 85.9535 72.8331C85.5202 72.6532 85.1817 72.3868 84.9379 72.0341C84.6964 71.679 84.5697 71.2398 84.5579 70.7166H86.0458C86.0624 70.9605 86.1322 71.1641 86.2553 71.3274C86.3808 71.4884 86.5477 71.6103 86.756 71.6932C86.9667 71.7737 87.2047 71.8139 87.4698 71.8139C87.7302 71.8139 87.9563 71.776 88.1481 71.7003C88.3422 71.6245 88.4925 71.5192 88.5991 71.3842C88.7056 71.2493 88.7589 71.0942 88.7589 70.919C88.7589 70.7557 88.7103 70.6184 88.6133 70.5071C88.5186 70.3958 88.3789 70.3011 88.1942 70.223C88.012 70.1449 87.7882 70.0739 87.5231 70.0099L86.7312 69.8111C86.118 69.6619 85.6339 69.4287 85.2788 69.1115C84.9237 68.7943 84.7473 68.367 84.7496 67.8295C84.7473 67.3892 84.8645 67.0045 85.1012 66.6754C85.3403 66.3464 85.6682 66.0895 86.0849 65.9048C86.5015 65.7202 86.975 65.6278 87.5053 65.6278C88.0451 65.6278 88.5162 65.7202 88.9187 65.9048C89.3235 66.0895 89.6384 66.3464 89.8633 66.6754C90.0882 67.0045 90.2042 67.3857 90.2113 67.8189H88.7376ZM97.7619 68.2734H96.2065C96.1781 68.0722 96.1201 67.8935 96.0325 67.7372C95.9449 67.5786 95.8324 67.4437 95.6951 67.3324C95.5578 67.2211 95.3992 67.1359 95.2193 67.0767C95.0417 67.0175 94.8488 66.9879 94.6404 66.9879C94.264 66.9879 93.9361 67.0814 93.6568 67.2685C93.3774 67.4531 93.1608 67.723 93.0069 68.0781C92.853 68.4309 92.7761 68.8594 92.7761 69.3636C92.7761 69.8821 92.853 70.3177 93.0069 70.6705C93.1632 71.0232 93.381 71.2895 93.6603 71.4695C93.9397 71.6494 94.2628 71.7393 94.6298 71.7393C94.8358 71.7393 95.0263 71.7121 95.2015 71.6577C95.3791 71.6032 95.5365 71.5239 95.6738 71.4197C95.8111 71.3132 95.9248 71.1842 96.0147 71.0327C96.1071 70.8812 96.171 70.7083 96.2065 70.5142L97.7619 70.5213C97.7217 70.8551 97.621 71.1771 97.46 71.4872C97.3014 71.795 97.0872 72.0708 96.8173 72.3146C96.5498 72.5561 96.2302 72.7479 95.8585 72.8899C95.4892 73.0296 95.0713 73.0994 94.6049 73.0994C93.9563 73.0994 93.3762 72.9527 92.8649 72.6591C92.3559 72.3655 91.9534 71.9406 91.6575 71.3842C91.3639 70.8279 91.2172 70.1544 91.2172 69.3636C91.2172 68.5705 91.3663 67.8958 91.6646 67.3395C91.9629 66.7831 92.3677 66.3594 92.8791 66.0682C93.3904 65.7746 93.9657 65.6278 94.6049 65.6278C95.0263 65.6278 95.417 65.687 95.7768 65.8054C96.139 65.9238 96.4598 66.0966 96.7392 66.3239C97.0185 66.5488 97.2458 66.8246 97.421 67.1513C97.5985 67.478 97.7122 67.852 97.7619 68.2734ZM98.8645 73V65.7273H101.734C102.283 65.7273 102.752 65.8255 103.14 66.022C103.531 66.2161 103.828 66.492 104.031 66.8494C104.237 67.2045 104.34 67.6224 104.34 68.103C104.34 68.5859 104.236 69.0014 104.028 69.3494C103.82 69.6951 103.518 69.9602 103.122 70.1449C102.729 70.3295 102.253 70.4219 101.695 70.4219H99.7736V69.1861H101.446C101.74 69.1861 101.984 69.1458 102.178 69.0653C102.372 68.9848 102.516 68.8641 102.611 68.7031C102.708 68.5421 102.757 68.3421 102.757 68.103C102.757 67.8615 102.708 67.6579 102.611 67.4922C102.516 67.3265 102.371 67.201 102.174 67.1158C101.98 67.0282 101.735 66.9844 101.439 66.9844H100.402V73H98.8645ZM102.792 69.6903L104.6 73H102.902L101.134 69.6903H102.792ZM106.965 65.7273V73H105.427V65.7273H106.965ZM108.23 73V65.7273H111.099C111.651 65.7273 112.121 65.8326 112.509 66.0433C112.897 66.2517 113.193 66.5417 113.397 66.9134C113.603 67.2827 113.706 67.7088 113.706 68.1918C113.706 68.6747 113.601 69.1009 113.393 69.4702C113.185 69.8395 112.883 70.1271 112.488 70.3331C112.095 70.5391 111.619 70.642 111.06 70.642H109.231V69.4098H110.811C111.107 69.4098 111.351 69.3589 111.543 69.2571C111.737 69.1529 111.882 69.0097 111.976 68.8274C112.073 68.6428 112.122 68.4309 112.122 68.1918C112.122 67.9503 112.073 67.7396 111.976 67.5597C111.882 67.3774 111.737 67.2365 111.543 67.1371C111.349 67.0353 111.103 66.9844 110.804 66.9844H109.767V73H108.23ZM114.427 66.995V65.7273H120.4V66.995H118.174V73H116.654V66.995H114.427ZM122.922 65.7273V73H121.384V65.7273H122.922ZM130.87 69.3636C130.87 70.1567 130.72 70.8314 130.419 71.3878C130.121 71.9441 129.714 72.3691 129.197 72.6626C128.684 72.9538 128.106 73.0994 127.464 73.0994C126.818 73.0994 126.238 72.9527 125.724 72.6591C125.211 72.3655 124.805 71.9406 124.506 71.3842C124.208 70.8279 124.059 70.1544 124.059 69.3636C124.059 68.5705 124.208 67.8958 124.506 67.3395C124.805 66.7831 125.211 66.3594 125.724 66.0682C126.238 65.7746 126.818 65.6278 127.464 65.6278C128.106 65.6278 128.684 65.7746 129.197 66.0682C129.714 66.3594 130.121 66.7831 130.419 67.3395C130.72 67.8958 130.87 68.5705 130.87 69.3636ZM129.311 69.3636C129.311 68.8499 129.234 68.4167 129.08 68.0639C128.929 67.7112 128.714 67.4437 128.438 67.2614C128.161 67.0791 127.836 66.9879 127.464 66.9879C127.093 66.9879 126.768 67.0791 126.491 67.2614C126.214 67.4437 125.999 67.7112 125.845 68.0639C125.694 68.4167 125.618 68.8499 125.618 69.3636C125.618 69.8774 125.694 70.3106 125.845 70.6634C125.999 71.0161 126.214 71.2836 126.491 71.4659C126.768 71.6482 127.093 71.7393 127.464 71.7393C127.836 71.7393 128.161 71.6482 128.438 71.4659C128.714 71.2836 128.929 71.0161 129.08 70.6634C129.234 70.3106 129.311 69.8774 129.311 69.3636ZM138.092 65.7273V73H136.764L133.6 68.4226H133.547V73H132.009V65.7273H133.358L136.498 70.3011H136.562V65.7273H138.092ZM143.308 67.8189C143.279 67.5324 143.158 67.3099 142.942 67.1513C142.727 66.9927 142.434 66.9134 142.065 66.9134C141.814 66.9134 141.602 66.9489 141.429 67.0199C141.257 67.0885 141.124 67.1844 141.032 67.3075C140.942 67.4306 140.897 67.5703 140.897 67.7266C140.892 67.8568 140.919 67.9704 140.978 68.0675C141.04 68.1645 141.124 68.2486 141.23 68.3196C141.337 68.3883 141.46 68.4486 141.6 68.5007C141.739 68.5504 141.889 68.593 142.047 68.6286L142.701 68.7848C143.018 68.8558 143.309 68.9505 143.574 69.0689C143.839 69.1873 144.069 69.3329 144.263 69.5057C144.457 69.6785 144.608 69.8821 144.714 70.1165C144.823 70.3509 144.879 70.6196 144.881 70.9226C144.879 71.3677 144.765 71.7536 144.54 72.0803C144.318 72.4046 143.996 72.6567 143.574 72.8366C143.155 73.0142 142.65 73.103 142.058 73.103C141.471 73.103 140.959 73.013 140.524 72.8331C140.091 72.6532 139.752 72.3868 139.508 72.0341C139.267 71.679 139.14 71.2398 139.128 70.7166H140.616C140.633 70.9605 140.703 71.1641 140.826 71.3274C140.951 71.4884 141.118 71.6103 141.326 71.6932C141.537 71.7737 141.775 71.8139 142.04 71.8139C142.301 71.8139 142.527 71.776 142.718 71.7003C142.913 71.6245 143.063 71.5192 143.169 71.3842C143.276 71.2493 143.329 71.0942 143.329 70.919C143.329 70.7557 143.281 70.6184 143.184 70.5071C143.089 70.3958 142.949 70.3011 142.765 70.223C142.582 70.1449 142.359 70.0739 142.093 70.0099L141.301 69.8111C140.688 69.6619 140.204 69.4287 139.849 69.1115C139.494 68.7943 139.318 68.367 139.32 67.8295C139.318 67.3892 139.435 67.0045 139.672 66.6754C139.911 66.3464 140.239 66.0895 140.655 65.9048C141.072 65.7202 141.545 65.6278 142.076 65.6278C142.615 65.6278 143.087 65.7202 143.489 65.9048C143.894 66.0895 144.209 66.3464 144.434 66.6754C144.658 67.0045 144.775 67.3857 144.782 67.8189H143.308Z" fill="#3879E9"/>
<rect width="227" height="106" transform="translate(65 89)" fill="#3879E9" fill-opacity="0.1"/>
<rect x="69" y="97" width="219" height="26" rx="4" fill="white"/>
<rect x="69.5" y="97.5" width="218" height="25" rx="3.5" stroke="#A8A1B7" stroke-opacity="0.1"/>
<path d="M79.4212 107.909V113H78.6506V108.68H78.6207L77.4027 109.475V108.739L78.6729 107.909H79.4212ZM81.004 113.047C80.8681 113.047 80.7513 112.999 80.6535 112.903C80.5557 112.805 80.5068 112.688 80.5068 112.55C80.5068 112.414 80.5557 112.298 80.6535 112.202C80.7513 112.104 80.8681 112.055 81.004 112.055C81.1399 112.055 81.2567 112.104 81.3545 112.202C81.4523 112.298 81.5012 112.414 81.5012 112.55C81.5012 112.641 81.478 112.725 81.4316 112.801C81.3868 112.876 81.3271 112.935 81.2526 112.98C81.178 113.025 81.0951 113.047 81.004 113.047Z" fill="#716E79"/>
<path d="M90.1307 113H89.1989L91.2926 107.182H92.3068L94.4006 113H93.4688L91.8239 108.239H91.7784L90.1307 113ZM90.2869 110.722H93.3097V111.46H90.2869V110.722ZM95.2408 107.182H96.3061L98.1584 111.705H98.2266L100.079 107.182H101.144V113H100.309V108.79H100.255L98.5391 112.991H97.8459L96.13 108.787H96.076V113H95.2408V107.182ZM107.474 110.091C107.474 110.712 107.361 111.246 107.134 111.693C106.906 112.138 106.595 112.481 106.199 112.722C105.805 112.96 105.357 113.08 104.855 113.08C104.351 113.08 103.902 112.96 103.506 112.722C103.112 112.481 102.801 112.137 102.574 111.69C102.347 111.243 102.233 110.71 102.233 110.091C102.233 109.47 102.347 108.937 102.574 108.491C102.801 108.045 103.112 107.702 103.506 107.463C103.902 107.223 104.351 107.102 104.855 107.102C105.357 107.102 105.805 107.223 106.199 107.463C106.595 107.702 106.906 108.045 107.134 108.491C107.361 108.937 107.474 109.47 107.474 110.091ZM106.605 110.091C106.605 109.617 106.528 109.219 106.375 108.895C106.223 108.569 106.015 108.323 105.75 108.156C105.487 107.988 105.188 107.903 104.855 107.903C104.52 107.903 104.221 107.988 103.957 108.156C103.694 108.323 103.486 108.569 103.332 108.895C103.181 109.219 103.105 109.617 103.105 110.091C103.105 110.564 103.181 110.964 103.332 111.29C103.486 111.614 103.694 111.86 103.957 112.028C104.221 112.195 104.52 112.278 104.855 112.278C105.188 112.278 105.487 112.195 105.75 112.028C106.015 111.86 106.223 111.614 106.375 111.29C106.528 110.964 106.605 110.564 106.605 110.091ZM109.023 107.182L110.415 109.457H110.461L111.853 107.182H112.87L111.058 110.091L112.881 113H111.859L110.461 110.756H110.415L109.018 113H107.995L109.85 110.091L108.006 107.182H109.023ZM114.619 107.182V113H113.741V107.182H114.619ZM120.729 109.074H119.843C119.809 108.884 119.746 108.718 119.653 108.574C119.56 108.43 119.446 108.308 119.312 108.207C119.177 108.107 119.027 108.031 118.86 107.98C118.695 107.929 118.52 107.903 118.335 107.903C117.999 107.903 117.699 107.988 117.434 108.156C117.171 108.325 116.962 108.572 116.809 108.898C116.657 109.223 116.582 109.621 116.582 110.091C116.582 110.564 116.657 110.964 116.809 111.29C116.962 111.616 117.172 111.862 117.437 112.028C117.702 112.195 118 112.278 118.332 112.278C118.515 112.278 118.69 112.254 118.854 112.205C119.021 112.153 119.172 112.079 119.306 111.98C119.441 111.882 119.554 111.761 119.647 111.619C119.742 111.475 119.807 111.311 119.843 111.125L120.729 111.128C120.682 111.414 120.59 111.677 120.454 111.918C120.319 112.156 120.146 112.363 119.934 112.537C119.724 112.709 119.483 112.843 119.212 112.938C118.942 113.032 118.646 113.08 118.326 113.08C117.822 113.08 117.373 112.96 116.979 112.722C116.585 112.481 116.275 112.137 116.048 111.69C115.822 111.243 115.71 110.71 115.71 110.091C115.71 109.47 115.823 108.937 116.05 108.491C116.278 108.045 116.588 107.702 116.982 107.463C117.376 107.223 117.824 107.102 118.326 107.102C118.635 107.102 118.923 107.147 119.19 107.236C119.459 107.323 119.7 107.452 119.914 107.622C120.128 107.791 120.305 107.997 120.445 108.241C120.585 108.484 120.68 108.761 120.729 109.074ZM122.658 107.182V113H121.78V107.182H122.658ZM123.936 113V107.182H124.814V112.244H127.45V113H123.936ZM128.452 113V107.182H129.33V112.244H131.966V113H128.452ZM133.845 107.182V113H132.967V107.182H133.845ZM139.82 107.182V113H139.013L136.055 108.733H136.001V113H135.124V107.182H135.936L138.896 111.455H138.95V107.182H139.82Z" fill="#716E79"/>
<path d="M259.262 113.07C258.921 113.07 258.616 113.011 258.347 112.893C258.08 112.775 257.869 112.612 257.713 112.403C257.559 112.193 257.476 111.949 257.465 111.673H258.245C258.255 111.823 258.306 111.954 258.397 112.065C258.49 112.175 258.611 112.259 258.76 112.319C258.909 112.379 259.075 112.408 259.257 112.408C259.458 112.408 259.635 112.374 259.789 112.304C259.945 112.234 260.067 112.137 260.154 112.013C260.242 111.887 260.286 111.742 260.286 111.578C260.286 111.407 260.242 111.257 260.154 111.128C260.068 110.997 259.942 110.895 259.774 110.82C259.608 110.745 259.408 110.708 259.173 110.708H258.743V110.082H259.173C259.362 110.082 259.527 110.048 259.67 109.98C259.814 109.912 259.927 109.817 260.008 109.696C260.089 109.574 260.13 109.43 260.13 109.266C260.13 109.109 260.094 108.972 260.023 108.856C259.953 108.739 259.854 108.647 259.724 108.58C259.597 108.514 259.446 108.481 259.272 108.481C259.106 108.481 258.951 108.511 258.807 108.573C258.665 108.632 258.549 108.719 258.459 108.831C258.37 108.942 258.322 109.076 258.315 109.232H257.572C257.58 108.956 257.661 108.714 257.815 108.506C257.971 108.297 258.177 108.134 258.432 108.016C258.687 107.898 258.97 107.839 259.282 107.839C259.608 107.839 259.89 107.903 260.127 108.031C260.366 108.157 260.55 108.325 260.679 108.536C260.81 108.746 260.875 108.976 260.873 109.227C260.875 109.512 260.795 109.754 260.634 109.952C260.475 110.151 260.263 110.285 259.998 110.353V110.392C260.336 110.444 260.598 110.578 260.783 110.795C260.971 111.012 261.063 111.281 261.062 111.603C261.063 111.883 260.986 112.134 260.828 112.356C260.672 112.578 260.459 112.753 260.189 112.881C259.919 113.007 259.61 113.07 259.262 113.07ZM265.572 113H263.924V107.909H265.624C266.123 107.909 266.551 108.011 266.909 108.215C267.267 108.417 267.541 108.708 267.732 109.087C267.924 109.465 268.02 109.918 268.02 110.447C268.02 110.977 267.923 111.433 267.729 111.814C267.537 112.195 267.259 112.489 266.894 112.694C266.53 112.898 266.089 113 265.572 113ZM264.692 112.329H265.529C265.917 112.329 266.239 112.256 266.496 112.11C266.753 111.963 266.945 111.75 267.073 111.471C267.201 111.191 267.264 110.85 267.264 110.447C267.264 110.048 267.201 109.709 267.073 109.43C266.947 109.152 266.759 108.941 266.509 108.797C266.259 108.652 265.948 108.58 265.577 108.58H264.692V112.329ZM270.027 113.085C269.785 113.085 269.566 113.04 269.371 112.95C269.175 112.859 269.02 112.727 268.906 112.555C268.793 112.383 268.737 112.171 268.737 111.921C268.737 111.706 268.778 111.528 268.861 111.389C268.944 111.25 269.056 111.14 269.197 111.059C269.337 110.977 269.495 110.916 269.669 110.875C269.843 110.833 270.02 110.802 270.201 110.78C270.43 110.754 270.615 110.732 270.758 110.716C270.9 110.697 271.004 110.668 271.068 110.629C271.133 110.589 271.165 110.524 271.165 110.435V110.417C271.165 110.2 271.104 110.032 270.981 109.913C270.86 109.793 270.68 109.734 270.439 109.734C270.189 109.734 269.992 109.789 269.848 109.9C269.705 110.01 269.607 110.131 269.552 110.266L268.854 110.107C268.936 109.875 269.057 109.687 269.216 109.545C269.377 109.401 269.562 109.296 269.771 109.232C269.98 109.165 270.199 109.132 270.43 109.132C270.582 109.132 270.744 109.15 270.914 109.187C271.087 109.222 271.247 109.286 271.396 109.381C271.547 109.475 271.671 109.61 271.767 109.786C271.863 109.96 271.911 110.186 271.911 110.464V113H271.185V112.478H271.155C271.107 112.574 271.035 112.669 270.939 112.761C270.843 112.854 270.72 112.931 270.569 112.993C270.418 113.054 270.237 113.085 270.027 113.085ZM270.188 112.488C270.394 112.488 270.57 112.447 270.715 112.366C270.863 112.285 270.975 112.179 271.051 112.048C271.129 111.915 271.168 111.774 271.168 111.623V111.131C271.141 111.157 271.09 111.182 271.014 111.205C270.939 111.227 270.854 111.246 270.758 111.262C270.662 111.277 270.568 111.291 270.477 111.305C270.386 111.316 270.309 111.326 270.248 111.335C270.104 111.353 269.972 111.383 269.853 111.426C269.735 111.47 269.641 111.532 269.569 111.613C269.5 111.692 269.465 111.799 269.465 111.931C269.465 112.115 269.533 112.254 269.669 112.349C269.805 112.442 269.978 112.488 270.188 112.488ZM272.901 113V109.182H273.644V113H272.901ZM273.276 108.593C273.147 108.593 273.036 108.55 272.943 108.463C272.852 108.376 272.807 108.271 272.807 108.15C272.807 108.028 272.852 107.923 272.943 107.837C273.036 107.749 273.147 107.705 273.276 107.705C273.406 107.705 273.516 107.749 273.607 107.837C273.7 107.923 273.746 108.028 273.746 108.15C273.746 108.271 273.7 108.376 273.607 108.463C273.516 108.55 273.406 108.593 273.276 108.593ZM275.387 107.909V113H274.644V107.909H275.387ZM276.857 114.432C276.746 114.432 276.645 114.423 276.554 114.404C276.463 114.388 276.395 114.37 276.35 114.35L276.529 113.741C276.665 113.777 276.786 113.793 276.892 113.788C276.998 113.783 277.092 113.743 277.173 113.669C277.256 113.594 277.329 113.472 277.392 113.303L277.484 113.05L276.087 109.182H276.882L277.849 112.145H277.889L278.856 109.182H279.654L278.08 113.51C278.007 113.708 277.914 113.877 277.802 114.014C277.689 114.153 277.555 114.258 277.399 114.327C277.243 114.397 277.063 114.432 276.857 114.432Z" fill="#41E620"/>
<rect x="69" y="129" width="219" height="26" rx="4" fill="white"/>
<rect x="69.5" y="129.5" width="218" height="25" rx="3.5" stroke="#A8A1B7" stroke-opacity="0.1"/>
<path d="M77.4897 145V144.443L79.2124 142.658C79.3963 142.464 79.5479 142.295 79.6673 142.149C79.7882 142.001 79.8786 141.861 79.9382 141.729C79.9979 141.596 80.0277 141.455 80.0277 141.306C80.0277 141.137 79.9879 140.991 79.9084 140.869C79.8288 140.744 79.7203 140.649 79.5827 140.583C79.4452 140.515 79.2902 140.481 79.1179 140.481C78.9356 140.481 78.7765 140.518 78.6406 140.593C78.5047 140.667 78.4003 140.772 78.3274 140.908C78.2545 141.044 78.218 141.203 78.218 141.386H77.4847C77.4847 141.076 77.556 140.805 77.6985 140.573C77.841 140.341 78.0366 140.161 78.2852 140.033C78.5337 139.904 78.8163 139.839 79.1328 139.839C79.4527 139.839 79.7344 139.903 79.978 140.031C80.2232 140.157 80.4147 140.329 80.5522 140.548C80.6897 140.765 80.7585 141.01 80.7585 141.284C80.7585 141.473 80.7229 141.657 80.6516 141.838C80.582 142.019 80.4602 142.22 80.2862 142.442C80.1122 142.663 79.8703 142.93 79.5604 143.245L78.5487 144.304V144.341H80.8406V145H77.4897ZM82.2823 145.047C82.1464 145.047 82.0296 144.999 81.9318 144.903C81.834 144.805 81.7852 144.688 81.7852 144.55C81.7852 144.414 81.834 144.298 81.9318 144.202C82.0296 144.104 82.1464 144.055 82.2823 144.055C82.4182 144.055 82.535 144.104 82.6328 144.202C82.7306 144.298 82.7795 144.414 82.7795 144.55C82.7795 144.641 82.7563 144.725 82.7099 144.801C82.6651 144.876 82.6055 144.935 82.5309 144.98C82.4563 145.025 82.3735 145.047 82.2823 145.047Z" fill="#716E79"/>
<path d="M89.1307 145H88.1989L90.2926 139.182H91.3068L93.4006 145H92.4688L90.8239 140.239H90.7784L89.1307 145ZM89.2869 142.722H92.3097V143.46H89.2869V142.722ZM94.2408 139.182H95.3061L97.1584 143.705H97.2266L99.0788 139.182H100.144V145H99.3089V140.79H99.255L97.5391 144.991H96.8459L95.13 140.787H95.076V145H94.2408V139.182ZM101.42 145V139.182H105.068V139.938H102.298V141.71H104.878V142.463H102.298V144.244H105.102V145H101.42ZM105.954 139.938V139.182H110.457V139.938H108.641V145H107.766V139.938H105.954ZM111.256 145H110.324L112.418 139.182H113.432L115.526 145H114.594L112.949 140.239H112.903L111.256 145ZM111.412 142.722H114.435V143.46H111.412V142.722ZM116.366 139.182H117.431L119.283 143.705H119.352L121.204 139.182H122.269V145H121.434V140.79H121.38L119.664 144.991H118.971L117.255 140.787H117.201V145H116.366V139.182ZM124.423 139.182V145H123.545V139.182H124.423ZM130.398 139.182V145H129.591L126.634 140.733H126.58V145H125.702V139.182H126.514L129.474 143.455H129.528V139.182H130.398ZM136.732 142.091C136.732 142.712 136.619 143.246 136.391 143.693C136.164 144.138 135.853 144.481 135.457 144.722C135.063 144.96 134.615 145.08 134.113 145.08C133.609 145.08 133.159 144.96 132.763 144.722C132.37 144.481 132.059 144.137 131.832 143.69C131.604 143.243 131.491 142.71 131.491 142.091C131.491 141.47 131.604 140.937 131.832 140.491C132.059 140.045 132.37 139.702 132.763 139.463C133.159 139.223 133.609 139.102 134.113 139.102C134.615 139.102 135.063 139.223 135.457 139.463C135.853 139.702 136.164 140.045 136.391 140.491C136.619 140.937 136.732 141.47 136.732 142.091ZM135.863 142.091C135.863 141.617 135.786 141.219 135.633 140.895C135.481 140.569 135.273 140.323 135.008 140.156C134.745 139.988 134.446 139.903 134.113 139.903C133.778 139.903 133.478 139.988 133.215 140.156C132.952 140.323 132.744 140.569 132.59 140.895C132.439 141.219 132.363 141.617 132.363 142.091C132.363 142.564 132.439 142.964 132.59 143.29C132.744 143.614 132.952 143.86 133.215 144.028C133.478 144.195 133.778 144.278 134.113 144.278C134.446 144.278 134.745 144.195 135.008 144.028C135.273 143.86 135.481 143.614 135.633 143.29C135.786 142.964 135.863 142.564 135.863 142.091ZM137.827 145V139.182H139.901C140.353 139.182 140.728 139.264 141.026 139.429C141.323 139.594 141.545 139.819 141.693 140.105C141.841 140.389 141.915 140.709 141.915 141.065C141.915 141.423 141.84 141.745 141.69 142.031C141.543 142.315 141.319 142.541 141.02 142.707C140.723 142.872 140.348 142.955 139.898 142.955H138.472V142.21H139.818C140.104 142.21 140.336 142.161 140.514 142.062C140.692 141.962 140.823 141.826 140.906 141.653C140.99 141.481 141.031 141.285 141.031 141.065C141.031 140.846 140.99 140.651 140.906 140.48C140.823 140.31 140.691 140.176 140.511 140.08C140.333 139.983 140.098 139.935 139.807 139.935H138.705V145H137.827ZM142.944 145V139.182H143.822V141.71H146.722V139.182H147.603V145H146.722V142.463H143.822V145H142.944ZM148.881 145V139.182H152.529V139.938H149.759V141.71H152.339V142.463H149.759V144.244H152.563V145H148.881ZM158.398 139.182V145H157.591L154.634 140.733H154.58V145H153.702V139.182H154.514L157.474 143.455H157.528V139.182H158.398Z" fill="#716E79"/>
<path d="M257.49 145V144.443L259.212 142.658C259.396 142.464 259.548 142.295 259.667 142.149C259.788 142.001 259.879 141.861 259.938 141.729C259.998 141.596 260.028 141.455 260.028 141.306C260.028 141.137 259.988 140.991 259.908 140.869C259.829 140.744 259.72 140.649 259.583 140.583C259.445 140.515 259.29 140.481 259.118 140.481C258.936 140.481 258.777 140.518 258.641 140.593C258.505 140.667 258.4 140.772 258.327 140.908C258.254 141.044 258.218 141.203 258.218 141.386H257.485C257.485 141.076 257.556 140.805 257.699 140.573C257.841 140.341 258.037 140.161 258.285 140.033C258.534 139.904 258.816 139.839 259.133 139.839C259.453 139.839 259.734 139.903 259.978 140.031C260.223 140.157 260.415 140.329 260.552 140.548C260.69 140.765 260.759 141.01 260.759 141.284C260.759 141.473 260.723 141.657 260.652 141.838C260.582 142.019 260.46 142.22 260.286 142.442C260.112 142.663 259.87 142.93 259.56 143.245L258.549 144.304V144.341H260.841V145H257.49ZM265.353 145H263.705V139.909H265.405C265.904 139.909 266.332 140.011 266.69 140.215C267.048 140.417 267.322 140.708 267.513 141.087C267.705 141.465 267.801 141.918 267.801 142.447C267.801 142.977 267.704 143.433 267.511 143.814C267.318 144.195 267.04 144.489 266.675 144.694C266.311 144.898 265.87 145 265.353 145ZM264.473 144.329H265.311C265.698 144.329 266.021 144.256 266.278 144.11C266.534 143.963 266.727 143.75 266.854 143.471C266.982 143.191 267.046 142.85 267.046 142.447C267.046 142.048 266.982 141.709 266.854 141.43C266.728 141.152 266.54 140.941 266.29 140.797C266.04 140.652 265.729 140.58 265.358 140.58H264.473V144.329ZM269.808 145.085C269.566 145.085 269.347 145.04 269.152 144.95C268.956 144.859 268.801 144.727 268.687 144.555C268.574 144.383 268.518 144.171 268.518 143.921C268.518 143.706 268.559 143.528 268.642 143.389C268.725 143.25 268.837 143.14 268.978 143.059C269.119 142.977 269.276 142.916 269.45 142.875C269.624 142.833 269.801 142.802 269.982 142.78C270.211 142.754 270.396 142.732 270.539 142.716C270.681 142.697 270.785 142.668 270.85 142.629C270.914 142.589 270.947 142.524 270.947 142.435V142.417C270.947 142.2 270.885 142.032 270.763 141.913C270.642 141.793 270.461 141.734 270.221 141.734C269.97 141.734 269.773 141.789 269.629 141.9C269.487 142.01 269.388 142.131 269.333 142.266L268.635 142.107C268.718 141.875 268.839 141.687 268.998 141.545C269.158 141.401 269.343 141.296 269.552 141.232C269.761 141.165 269.98 141.132 270.211 141.132C270.363 141.132 270.525 141.15 270.695 141.187C270.868 141.222 271.029 141.286 271.178 141.381C271.329 141.475 271.452 141.61 271.548 141.786C271.644 141.96 271.692 142.186 271.692 142.464V145H270.966V144.478H270.937C270.889 144.574 270.816 144.669 270.72 144.761C270.624 144.854 270.501 144.931 270.35 144.993C270.199 145.054 270.019 145.085 269.808 145.085ZM269.97 144.488C270.175 144.488 270.351 144.447 270.497 144.366C270.644 144.285 270.756 144.179 270.832 144.048C270.91 143.915 270.949 143.774 270.949 143.623V143.131C270.923 143.157 270.871 143.182 270.795 143.205C270.72 143.227 270.635 143.246 270.539 143.262C270.443 143.277 270.349 143.291 270.258 143.305C270.167 143.316 270.091 143.326 270.029 143.335C269.885 143.353 269.753 143.383 269.634 143.426C269.516 143.47 269.422 143.532 269.351 143.613C269.281 143.692 269.246 143.799 269.246 143.931C269.246 144.115 269.314 144.254 269.45 144.349C269.586 144.442 269.759 144.488 269.97 144.488ZM272.682 145V141.182H273.426V145H272.682ZM273.058 140.593C272.928 140.593 272.817 140.55 272.725 140.463C272.633 140.376 272.588 140.271 272.588 140.15C272.588 140.028 272.633 139.923 272.725 139.837C272.817 139.749 272.928 139.705 273.058 139.705C273.187 139.705 273.297 139.749 273.388 139.837C273.481 139.923 273.527 140.028 273.527 140.15C273.527 140.271 273.481 140.376 273.388 140.463C273.297 140.55 273.187 140.593 273.058 140.593ZM275.169 139.909V145H274.425V139.909H275.169ZM276.638 146.432C276.527 146.432 276.426 146.423 276.335 146.404C276.244 146.388 276.176 146.37 276.131 146.35L276.31 145.741C276.446 145.777 276.567 145.793 276.673 145.788C276.779 145.783 276.873 145.743 276.954 145.669C277.037 145.594 277.11 145.472 277.173 145.303L277.265 145.05L275.868 141.182H276.663L277.63 144.145H277.67L278.637 141.182H279.435L277.861 145.51C277.789 145.708 277.696 145.877 277.583 146.014C277.47 146.153 277.336 146.258 277.18 146.327C277.025 146.397 276.844 146.432 276.638 146.432Z" fill="#41E620"/>
<rect x="69" y="161" width="219" height="26" rx="4" fill="white"/>
<rect x="69.5" y="161.5" width="218" height="25" rx="3.5" stroke="#A8A1B7" stroke-opacity="0.1"/>
<path d="M79.2621 177.07C78.9207 177.07 78.6158 177.011 78.3473 176.893C78.0805 176.775 77.8692 176.612 77.7134 176.403C77.5593 176.193 77.4764 175.949 77.4648 175.673H78.2454C78.2553 175.823 78.3059 175.954 78.397 176.065C78.4898 176.175 78.6108 176.259 78.7599 176.319C78.9091 176.379 79.0748 176.408 79.2571 176.408C79.4576 176.408 79.6349 176.374 79.7891 176.304C79.9448 176.234 80.0666 176.137 80.1545 176.013C80.2423 175.887 80.2862 175.742 80.2862 175.578C80.2862 175.407 80.2423 175.257 80.1545 175.128C80.0683 174.997 79.9415 174.895 79.7741 174.82C79.6084 174.745 79.4079 174.708 79.1726 174.708H78.7425V174.082H79.1726C79.3615 174.082 79.5272 174.048 79.6697 173.98C79.8139 173.912 79.9266 173.817 80.0078 173.696C80.089 173.574 80.1296 173.43 80.1296 173.266C80.1296 173.109 80.094 172.972 80.0227 172.856C79.9531 172.739 79.8537 172.647 79.7244 172.58C79.5968 172.514 79.446 172.481 79.272 172.481C79.1063 172.481 78.9513 172.511 78.8072 172.573C78.6647 172.632 78.5487 172.719 78.4592 172.831C78.3697 172.942 78.3216 173.076 78.315 173.232H77.5717C77.58 172.956 77.6612 172.714 77.8153 172.506C77.9711 172.297 78.1766 172.134 78.4318 172.016C78.687 171.898 78.9704 171.839 79.282 171.839C79.6084 171.839 79.8902 171.903 80.1271 172.031C80.3658 172.157 80.5497 172.325 80.679 172.536C80.8099 172.746 80.8745 172.976 80.8729 173.227C80.8745 173.512 80.795 173.754 80.6342 173.952C80.4751 174.151 80.263 174.285 79.9979 174.353V174.392C80.3359 174.444 80.5978 174.578 80.7834 174.795C80.9706 175.012 81.0634 175.281 81.0618 175.603C81.0634 175.883 80.9856 176.134 80.8281 176.356C80.6723 176.578 80.4594 176.753 80.1893 176.881C79.9192 177.007 79.6101 177.07 79.2621 177.07ZM82.3507 177.047C82.2148 177.047 82.098 176.999 82.0002 176.903C81.9024 176.805 81.8535 176.688 81.8535 176.55C81.8535 176.414 81.9024 176.298 82.0002 176.202C82.098 176.104 82.2148 176.055 82.3507 176.055C82.4866 176.055 82.6034 176.104 82.7012 176.202C82.7989 176.298 82.8478 176.414 82.8478 176.55C82.8478 176.641 82.8246 176.725 82.7782 176.801C82.7335 176.876 82.6738 176.935 82.5993 176.98C82.5247 177.025 82.4418 177.047 82.3507 177.047Z" fill="#716E79"/>
<path d="M88.6392 171.182H89.7045L91.5568 175.705H91.625L93.4773 171.182H94.5426V177H93.7074V172.79H93.6534L91.9375 176.991H91.2443L89.5284 172.787H89.4744V177H88.6392V171.182ZM95.8189 177V171.182H99.4666V171.938H96.6967V173.71H99.2763V174.463H96.6967V176.244H99.5007V177H95.8189ZM100.352 171.938V171.182H104.855V171.938H103.04V177H102.165V171.938H100.352ZM105.85 177V171.182H107.924C108.375 171.182 108.749 171.259 109.046 171.415C109.345 171.57 109.569 171.785 109.717 172.06C109.864 172.332 109.938 172.648 109.938 173.006C109.938 173.362 109.863 173.675 109.714 173.946C109.566 174.215 109.343 174.424 109.043 174.574C108.746 174.723 108.372 174.798 107.921 174.798H106.35V174.043H107.842C108.126 174.043 108.357 174.002 108.535 173.92C108.715 173.839 108.846 173.721 108.93 173.565C109.013 173.41 109.055 173.223 109.055 173.006C109.055 172.786 109.012 172.596 108.927 172.435C108.844 172.274 108.712 172.151 108.532 172.065C108.354 171.978 108.12 171.935 107.83 171.935H106.728V177H105.85ZM108.722 174.375L110.16 177H109.16L107.751 174.375H108.722ZM116.06 174.091C116.06 174.712 115.947 175.246 115.719 175.693C115.492 176.138 115.181 176.481 114.785 176.722C114.391 176.96 113.943 177.08 113.441 177.08C112.937 177.08 112.487 176.96 112.092 176.722C111.698 176.481 111.387 176.137 111.16 175.69C110.933 175.243 110.819 174.71 110.819 174.091C110.819 173.47 110.933 172.937 111.16 172.491C111.387 172.045 111.698 171.702 112.092 171.463C112.487 171.223 112.937 171.102 113.441 171.102C113.943 171.102 114.391 171.223 114.785 171.463C115.181 171.702 115.492 172.045 115.719 172.491C115.947 172.937 116.06 173.47 116.06 174.091ZM115.191 174.091C115.191 173.617 115.114 173.219 114.961 172.895C114.809 172.569 114.601 172.323 114.336 172.156C114.073 171.988 113.774 171.903 113.441 171.903C113.106 171.903 112.807 171.988 112.543 172.156C112.28 172.323 112.072 172.569 111.918 172.895C111.767 173.219 111.691 173.617 111.691 174.091C111.691 174.564 111.767 174.964 111.918 175.29C112.072 175.614 112.28 175.86 112.543 176.028C112.807 176.195 113.106 176.278 113.441 176.278C113.774 176.278 114.073 176.195 114.336 176.028C114.601 175.86 114.809 175.614 114.961 175.29C115.114 174.964 115.191 174.564 115.191 174.091ZM117.155 177V171.182H119.229C119.681 171.182 120.056 171.264 120.354 171.429C120.651 171.594 120.874 171.819 121.021 172.105C121.169 172.389 121.243 172.709 121.243 173.065C121.243 173.423 121.168 173.745 121.018 174.031C120.871 174.315 120.647 174.541 120.348 174.707C120.051 174.872 119.677 174.955 119.226 174.955H117.8V174.21H119.146C119.432 174.21 119.664 174.161 119.842 174.062C120.02 173.962 120.151 173.826 120.234 173.653C120.318 173.481 120.359 173.285 120.359 173.065C120.359 172.846 120.318 172.651 120.234 172.48C120.151 172.31 120.019 172.176 119.839 172.08C119.661 171.983 119.427 171.935 119.135 171.935H118.033V177H117.155ZM127.326 174.091C127.326 174.712 127.212 175.246 126.985 175.693C126.758 176.138 126.446 176.481 126.05 176.722C125.656 176.96 125.209 177.08 124.707 177.08C124.203 177.08 123.753 176.96 123.357 176.722C122.963 176.481 122.653 176.137 122.425 175.69C122.198 175.243 122.085 174.71 122.085 174.091C122.085 173.47 122.198 172.937 122.425 172.491C122.653 172.045 122.963 171.702 123.357 171.463C123.753 171.223 124.203 171.102 124.707 171.102C125.209 171.102 125.656 171.223 126.05 171.463C126.446 171.702 126.758 172.045 126.985 172.491C127.212 172.937 127.326 173.47 127.326 174.091ZM126.457 174.091C126.457 173.617 126.38 173.219 126.227 172.895C126.075 172.569 125.867 172.323 125.602 172.156C125.338 171.988 125.04 171.903 124.707 171.903C124.371 171.903 124.072 171.988 123.809 172.156C123.546 172.323 123.337 172.569 123.184 172.895C123.032 173.219 122.957 173.617 122.957 174.091C122.957 174.564 123.032 174.964 123.184 175.29C123.337 175.614 123.546 175.86 123.809 176.028C124.072 176.195 124.371 176.278 124.707 176.278C125.04 176.278 125.338 176.195 125.602 176.028C125.867 175.86 126.075 175.614 126.227 175.29C126.38 174.964 126.457 174.564 126.457 174.091ZM128.42 177V171.182H129.298V176.244H131.935V177H128.42ZM137.763 174.091C137.763 174.712 137.65 175.246 137.423 175.693C137.195 176.138 136.884 176.481 136.488 176.722C136.094 176.96 135.646 177.08 135.144 177.08C134.64 177.08 134.191 176.96 133.795 176.722C133.401 176.481 133.09 176.137 132.863 175.69C132.636 175.243 132.522 174.71 132.522 174.091C132.522 173.47 132.636 172.937 132.863 172.491C133.09 172.045 133.401 171.702 133.795 171.463C134.191 171.223 134.64 171.102 135.144 171.102C135.646 171.102 136.094 171.223 136.488 171.463C136.884 171.702 137.195 172.045 137.423 172.491C137.65 172.937 137.763 173.47 137.763 174.091ZM136.894 174.091C136.894 173.617 136.817 173.219 136.664 172.895C136.513 172.569 136.304 172.323 136.039 172.156C135.776 171.988 135.478 171.903 135.144 171.903C134.809 171.903 134.51 171.988 134.246 172.156C133.983 172.323 133.775 172.569 133.621 172.895C133.47 173.219 133.394 173.617 133.394 174.091C133.394 174.564 133.47 174.964 133.621 175.29C133.775 175.614 133.983 175.86 134.246 176.028C134.51 176.195 134.809 176.278 135.144 176.278C135.478 176.278 135.776 176.195 136.039 176.028C136.304 175.86 136.513 175.614 136.664 175.29C136.817 174.964 136.894 174.564 136.894 174.091ZM138.858 177V171.182H139.736V176.244H142.372V177H138.858Z" fill="#716E79"/>
<path d="M257.49 177V176.443L259.212 174.658C259.396 174.464 259.548 174.295 259.667 174.149C259.788 174.001 259.879 173.861 259.938 173.729C259.998 173.596 260.028 173.455 260.028 173.306C260.028 173.137 259.988 172.991 259.908 172.869C259.829 172.744 259.72 172.649 259.583 172.583C259.445 172.515 259.29 172.481 259.118 172.481C258.936 172.481 258.777 172.518 258.641 172.593C258.505 172.667 258.4 172.772 258.327 172.908C258.254 173.044 258.218 173.203 258.218 173.386H257.485C257.485 173.076 257.556 172.805 257.699 172.573C257.841 172.341 258.037 172.161 258.285 172.033C258.534 171.904 258.816 171.839 259.133 171.839C259.453 171.839 259.734 171.903 259.978 172.031C260.223 172.157 260.415 172.329 260.552 172.548C260.69 172.765 260.759 173.01 260.759 173.284C260.759 173.473 260.723 173.657 260.652 173.838C260.582 174.019 260.46 174.22 260.286 174.442C260.112 174.663 259.87 174.93 259.56 175.245L258.549 176.304V176.341H260.841V177H257.49ZM265.353 177H263.705V171.909H265.405C265.904 171.909 266.332 172.011 266.69 172.215C267.048 172.417 267.322 172.708 267.513 173.087C267.705 173.465 267.801 173.918 267.801 174.447C267.801 174.977 267.704 175.433 267.511 175.814C267.318 176.195 267.04 176.489 266.675 176.694C266.311 176.898 265.87 177 265.353 177ZM264.473 176.329H265.311C265.698 176.329 266.021 176.256 266.278 176.11C266.534 175.963 266.727 175.75 266.854 175.471C266.982 175.191 267.046 174.85 267.046 174.447C267.046 174.048 266.982 173.709 266.854 173.43C266.728 173.152 266.54 172.941 266.29 172.797C266.04 172.652 265.729 172.58 265.358 172.58H264.473V176.329ZM269.808 177.085C269.566 177.085 269.347 177.04 269.152 176.95C268.956 176.859 268.801 176.727 268.687 176.555C268.574 176.383 268.518 176.171 268.518 175.921C268.518 175.706 268.559 175.528 268.642 175.389C268.725 175.25 268.837 175.14 268.978 175.059C269.119 174.977 269.276 174.916 269.45 174.875C269.624 174.833 269.801 174.802 269.982 174.78C270.211 174.754 270.396 174.732 270.539 174.716C270.681 174.697 270.785 174.668 270.85 174.629C270.914 174.589 270.947 174.524 270.947 174.435V174.417C270.947 174.2 270.885 174.032 270.763 173.913C270.642 173.793 270.461 173.734 270.221 173.734C269.97 173.734 269.773 173.789 269.629 173.9C269.487 174.01 269.388 174.131 269.333 174.266L268.635 174.107C268.718 173.875 268.839 173.687 268.998 173.545C269.158 173.401 269.343 173.296 269.552 173.232C269.761 173.165 269.98 173.132 270.211 173.132C270.363 173.132 270.525 173.15 270.695 173.187C270.868 173.222 271.029 173.286 271.178 173.381C271.329 173.475 271.452 173.61 271.548 173.786C271.644 173.96 271.692 174.186 271.692 174.464V177H270.966V176.478H270.937C270.889 176.574 270.816 176.669 270.72 176.761C270.624 176.854 270.501 176.931 270.35 176.993C270.199 177.054 270.019 177.085 269.808 177.085ZM269.97 176.488C270.175 176.488 270.351 176.447 270.497 176.366C270.644 176.285 270.756 176.179 270.832 176.048C270.91 175.915 270.949 175.774 270.949 175.623V175.131C270.923 175.157 270.871 175.182 270.795 175.205C270.72 175.227 270.635 175.246 270.539 175.262C270.443 175.277 270.349 175.291 270.258 175.305C270.167 175.316 270.091 175.326 270.029 175.335C269.885 175.353 269.753 175.383 269.634 175.426C269.516 175.47 269.422 175.532 269.351 175.613C269.281 175.692 269.246 175.799 269.246 175.931C269.246 176.115 269.314 176.254 269.45 176.349C269.586 176.442 269.759 176.488 269.97 176.488ZM272.682 177V173.182H273.426V177H272.682ZM273.058 172.593C272.928 172.593 272.817 172.55 272.725 172.463C272.633 172.376 272.588 172.271 272.588 172.15C272.588 172.028 272.633 171.923 272.725 171.837C272.817 171.749 272.928 171.705 273.058 171.705C273.187 171.705 273.297 171.749 273.388 171.837C273.481 171.923 273.527 172.028 273.527 172.15C273.527 172.271 273.481 172.376 273.388 172.463C273.297 172.55 273.187 172.593 273.058 172.593ZM275.169 171.909V177H274.425V171.909H275.169ZM276.638 178.432C276.527 178.432 276.426 178.423 276.335 178.404C276.244 178.388 276.176 178.37 276.131 178.35L276.31 177.741C276.446 177.777 276.567 177.793 276.673 177.788C276.779 177.783 276.873 177.743 276.954 177.669C277.037 177.594 277.11 177.472 277.173 177.303L277.265 177.05L275.868 173.182H276.663L277.63 176.145H277.67L278.637 173.182H279.435L277.861 177.51C277.789 177.708 277.696 177.877 277.583 178.014C277.47 178.153 277.336 178.258 277.18 178.327C277.025 178.397 276.844 178.432 276.638 178.432Z" fill="#41E620"/>
<defs>
<filter id="filter0_d_320_10" x="24" y="24" width="301" height="226" filterUnits="userSpaceOnUse" color-interpolation-filters="sRGB">
<feFlood flood-opacity="0" result="BackgroundImageFix"/>
<feColorMatrix in="SourceAlpha" type="matrix" values="0 0 0 0 0 0 0 0 0 0 0 0 0 0 0 0 0 0 127 0" result="hardAlpha"/>
<feMorphology radius="4" operator="dilate" in="SourceAlpha" result="effect1_dropShadow_320_10"/>
<feOffset dx="-4" dy="-4"/>
<feGaussianBlur stdDeviation="5"/>
<feComposite in2="hardAlpha" operator="out"/>
<feColorMatrix type="matrix" values="0 0 0 0 0.658139 0 0 0 0 0.633056 0 0 0 0 0.716667 0 0 0 0.1 0"/>
<feBlend mode="normal" in2="BackgroundImageFix" result="effect1_dropShadow_320_10"/>
<feBlend mode="normal" in="SourceGraphic" in2="effect1_dropShadow_320_10" result="shape"/>
</filter>
</defs>
</svg>
